<svg height="395pt" viewBox="0 0 658 395" width="658pt" xmlns="http://www.w3.org/2000/svg"><g transform="translate(4 390.5)"><path d="m-4 4v-394.5h658v394.5z" fill="#fff"/><path d="m219-205.5v-173h423v173z" fill="#d3d3d3" stroke="#d3d3d3"/><text font-family="Times,serif" font-size="14" text-anchor="middle" x="430.5" y="-361.2">Repo Root</text><path d="m8-8v-165h377v165z" fill="none" stroke="#000"/><text font-family="Times,serif" font-size="14" text-anchor="middle" x="196.5" y="-155.7">Course Directory (e.g., ANAT401)</text><path d="m303.75-346h-41.5c-6 0-12 6-12 12v12c0 6 6 12 12 12h41.5c6 0 12-6 12-12v-12c0-6-6-12-12-12" fill="none" stroke="#000"/><text font-family="Times,serif" font-size="14" text-anchor="middle" x="283" y="-322.95">Makefile</text><path d="m319.12-257.5h-72.24c-6 0-12 6-12 12v12c0 6 6 12 12 12h72.24c6 0 12-6 12-12v-12c0-6-6-12-12-12" fill="none" stroke="#000"/><text font-family="Times,serif" font-size="14" text-anchor="middle" x="283" y="-234.45">new_course.sh</text><path d="m283-309.91v40.89" fill="none" stroke="#000"/><path d="m286.5-269.36-3.5 10-3.5-10z" stroke="#000"/><text font-family="Times,serif" font-size="14" text-anchor="middle" x="331" y="-278.7">make new-course</text><path d="m461.5-346h-31c-6 0-12 6-12 12v12c0 6 6 12 12 12h31c6 0 12-6 12-12v-12c0-6-6-12-12-12" fill="none" stroke="#000"/><text font-family="Times,serif" font-size="14" text-anchor="middle" x="446" y="-322.95">scripts/</text><g stroke="#000"><path d="m429.06-309.53c-11.89 11.3-28.71 25.45-46.06 34.03-17.2 8.51-23.79 3.96-42 10-3.07 1.02-6.21 2.14-9.35 3.32" fill="none"/><path d="m333.01-258.96-10.59.41 8.02-6.92z"/><path d="m614.25-257.5h-44.5c-6 0-12 6-12 12v12c0 6 6 12 12 12h44.5c6 0 12-6 12-12v-12c0-6-6-12-12-12" fill="none"/></g><text font-family="Times,serif" font-size="14" text-anchor="middle" x="592" y="-234.45">lecture.sh</text><path d="m473.81-310.53c22.32 13.23 53.94 31.96 78.86 46.73" fill="none" stroke="#000"/><path d="m554.42-266.83 6.82 8.11-10.38-2.09z" stroke="#000"/><path d="m428.5-257.5h-67c-6 0-12 6-12 12v12c0 6 6 12 12 12h67c6 0 12-6 12-12v-12c0-6-6-12-12-12" fill="none" stroke="#000"/><text font-family="Times,serif" font-size="14" text-anchor="middle" x="395" y="-234.45">studyguide.sh</text><path d="m435.92-309.91c-7.14 12.12-16.88 28.64-25.07 42.52" fill="none" stroke="#000"/><path d="m414.09-265.99-8.09 6.84 2.06-10.4z" stroke="#000"/><path d="m527.62-257.5h-57.24c-6 0-12 6-12 12v12c0 6 6 12 12 12h57.24c6 0 12-6 12-12v-12c0-6-6-12-12-12" fill="none" stroke="#000"/><text font-family="Times,serif" font-size="14" text-anchor="middle" x="499" y="-234.45">metadata.sh</text><path d="m456.47-309.91c7.43 12.12 17.55 28.64 26.05 42.52" fill="none" stroke="#000"/><path d="m485.34-269.5 2.24 10.36-8.21-6.7z" stroke="#000"/><path d="m69.75-140.5h-41.5c-6 0-12 6-12 12v12c0 6 6 12 12 12h41.5c6 0 12-6 12-12v-12c0-6-6-12-12-12" fill="none" stroke="#000"/><text font-family="Times,serif" font-size="14" text-anchor="middle" x="49" y="-117.45">Makefile</text><path d="m234.46-230.7c-41.4 8.58-100.82 25.63-143.46 57.7-8.64 6.5-16.7 15.07-23.4 23.26" fill="none" stroke="#000"/><path d="m70.48-147.74-8.9 5.75 3.37-10.05z" stroke="#000"/><text font-family="Times,serif" font-size="14" text-anchor="middle" x="147.33" y="-184.2">creates</text><path d="m156.25-140.5h-44.5c-6 0-12 6-12 12v12c0 6 6 12 12 12h44.5c6 0 12-6 12-12v-12c0-6-6-12-12-12" fill="none" stroke="#000"/><text font-family="Times,serif" font-size="14" text-anchor="middle" x="134" y="-117.45">lecture.sh</text><path d="m247.86-221.05c-21.77 11.8-49.55 28.72-70.86 48.05-7.84 7.11-15.66 15.59-22.44 23.5" fill="none" stroke="#000"/><path d="m157.46-147.52-9.09 5.45 3.71-9.93z" stroke="#000"/><text font-family="Times,serif" font-size="14" text-anchor="middle" x="223.86" y="-184.2">copies</text><path d="m265.5-140.5h-67c-6 0-12 6-12 12v12c0 6 6 12 12 12h67c6 0 12-6 12-12v-12c0-6-6-12-12-12" fill="none" stroke="#000"/><text font-family="Times,serif" font-size="14" text-anchor="middle" x="232" y="-117.45">studyguide.sh</text><path d="m270.37-221.11c-4.78 7.09-9.99 15.51-13.87 23.61-6.99 14.59-12.79 31.69-16.99 45.77" fill="none" stroke="#000"/><path d="m242.89-150.84-6.11 8.66-.62-10.58z" stroke="#000"/><text font-family="Times,serif" font-size="14" text-anchor="middle" x="273.75" y="-184.2">copies</text><path d="m364.62-140.5h-57.24c-6 0-12 6-12 12v12c0 6 6 12 12 12h57.24c6 0 12-6 12-12v-12c0-6-6-12-12-12" fill="none" stroke="#000"/><text font-family="Times,serif" font-size="14" text-anchor="middle" x="336" y="-117.45">metadata.sh</text><path d="m291.05-221.03c8.57 18.59 22.25 48.29 32.28 70.03" fill="none" stroke="#000"/><path d="m326.41-152.68 1 10.55-7.36-7.62z" stroke="#000"/><text font-family="Times,serif" font-size="14" text-anchor="middle" x="326.75" y="-184.2">copies</text><path d="m158.12-52h-48.24c-6 0-12 6-12 12v12c0 6 6 12 12 12h48.24c6 0 12-6 12-12v-12c0-6-6-12-12-12" fill="none" stroke="#000"/><text font-family="Times,serif" font-size="14" text-anchor="middle" x="134" y="-28.95">master.tex</text><path d="m313.11-221.09c28.72 16.87 68.26 40.93 72.89 48.09 12.52 19.38 28.22 85.66 13 103-20.41 23.24-107.34 13.95-138 18-26.25 3.47-55.54 7.39-79.38 10.59" fill="none" stroke="#000"/><path d="m182.28-37.97-10.38-2.14 9.45-4.8z" stroke="#000"/><text font-family="Times,serif" font-size="14" text-anchor="middle" x="423.6" y="-117.45">creates</text><path d="m312-52h-30c-6 0-12 6-12 12v12c0 6 6 12 12 12h30c6 0 12-6 12-12v-12c0-6-6-12-12-12" fill="none" stroke="#000"/><text font-family="Times,serif" font-size="14" text-anchor="middle" x="297" y="-28.95">notes/</text><path d="m308.19-221.07c9.82 5.94 21.43 11.99 32.81 15.57 50.25 15.82 92.23-15.48 114 32.5 19.6 43.2 11.78 77.16-28 103-27.61 17.93-64.2 26.73-91.53 31.01" fill="none" stroke="#000"/><path d="m336.27-35.57-10.39-2.06 9.41-4.87z" stroke="#000"/><text font-family="Times,serif" font-size="14" text-anchor="middle" x="484.06" y="-117.45">creates</text><path d="m56.98-104.43c5.57 10.71 13.74 24.35 23.52 34.43 3.76 3.88 8.03 7.55 12.47 10.95" fill="none" stroke="#000"/><path d="m94.87-61.99 6.13 8.64-10.18-2.94z" stroke="#000"/><text font-family="Times,serif" font-size="14" text-anchor="middle" x="105.25" y="-73.2">compiles</text><path d="m134-104.41v40.89" fill="none" stroke="#000"/><path d="m137.5-63.86-3.5 10-3.5-10z" stroke="#000"/><text font-family="Times,serif" font-size="14" text-anchor="middle" x="158.75" y="-73.2">compiles</text><path d="m235.26-104.04c2.62 10.59 7.11 23.97 14.49 34.04 3.15 4.3 6.99 8.31 11.09 11.95" fill="none" stroke="#000"/><path d="m262.74-61.01 5.6 8.99-9.98-3.54z" stroke="#000"/><text font-family="Times,serif" font-size="14" text-anchor="middle" x="279.38" y="-73.2">reads from</text><path d="m328.29-104.41c-5.36 11.89-12.62 28-18.8 41.71" fill="none" stroke="#000"/><path d="m312.75-61.41-7.31 7.68.92-10.55z" stroke="#000"/><text font-family="Times,serif" font-size="14" text-anchor="middle" x="359.74" y="-73.2">reads/writes to</text></g></svg>